<mxfile host="app.diagrams.net" agent="Mozilla/5.0 (X11; Linux x86_64) AppleWebKit/537.36 (KHTML, like Gecko) Chrome/137.0.0.0 Safari/537.36" version="28.0.7" pages="2">
  <diagram name="Page-1" id="-uO09uOQwNvN6vlR4xnG">
    <mxGraphModel dx="1042" dy="543" grid="1" gridSize="10" guides="1" tooltips="1" connect="1" arrows="1" fold="1" page="1" pageScale="1" pageWidth="850" pageHeight="1100" math="0" shadow="0">
      <root>
        <mxCell id="0" />
        <mxCell id="1" parent="0" />
        <mxCell id="qpJiPb5cpSYMiGC4lNPn-4" style="edgeStyle=orthogonalEdgeStyle;rounded=0;orthogonalLoop=1;jettySize=auto;html=1;exitX=1;exitY=0.5;exitDx=0;exitDy=0;" parent="1" source="qpJiPb5cpSYMiGC4lNPn-2" edge="1">
          <mxGeometry relative="1" as="geometry">
            <mxPoint x="480" y="30" as="targetPoint" />
          </mxGeometry>
        </mxCell>
        <mxCell id="qpJiPb5cpSYMiGC4lNPn-8" value="" style="edgeStyle=orthogonalEdgeStyle;rounded=0;orthogonalLoop=1;jettySize=auto;html=1;" parent="1" edge="1">
          <mxGeometry relative="1" as="geometry">
            <mxPoint x="399.71" y="50" as="sourcePoint" />
            <mxPoint x="399.71" y="125" as="targetPoint" />
            <Array as="points">
              <mxPoint x="400" y="70" />
              <mxPoint x="400" y="70" />
            </Array>
          </mxGeometry>
        </mxCell>
        <mxCell id="qpJiPb5cpSYMiGC4lNPn-2" value="start program" style="ellipse;whiteSpace=wrap;html=1;" parent="1" vertex="1">
          <mxGeometry x="350" y="10" width="100" height="50" as="geometry" />
        </mxCell>
        <mxCell id="qpJiPb5cpSYMiGC4lNPn-35" value="" style="edgeStyle=orthogonalEdgeStyle;rounded=0;orthogonalLoop=1;jettySize=auto;html=1;" parent="1" edge="1">
          <mxGeometry relative="1" as="geometry">
            <mxPoint x="418.75" y="149.71" as="sourcePoint" />
            <mxPoint x="488.75" y="149.71" as="targetPoint" />
          </mxGeometry>
        </mxCell>
        <mxCell id="qpJiPb5cpSYMiGC4lNPn-9" value="import module" style="rounded=0;whiteSpace=wrap;html=1;" parent="1" vertex="1">
          <mxGeometry x="365" y="130" width="60" height="40" as="geometry" />
        </mxCell>
        <mxCell id="qpJiPb5cpSYMiGC4lNPn-41" value="" style="edgeStyle=orthogonalEdgeStyle;rounded=0;orthogonalLoop=1;jettySize=auto;html=1;" parent="1" source="qpJiPb5cpSYMiGC4lNPn-15" target="qpJiPb5cpSYMiGC4lNPn-20" edge="1">
          <mxGeometry relative="1" as="geometry" />
        </mxCell>
        <mxCell id="qpJiPb5cpSYMiGC4lNPn-15" value="create&amp;nbsp; window" style="whiteSpace=wrap;html=1;aspect=fixed;" parent="1" vertex="1">
          <mxGeometry x="502.5" y="240" width="47.5" height="47.5" as="geometry" />
        </mxCell>
        <mxCell id="qpJiPb5cpSYMiGC4lNPn-20" value="create entrybox" style="rounded=1;whiteSpace=wrap;html=1;" parent="1" vertex="1">
          <mxGeometry x="477.5" y="320" width="70" height="30" as="geometry" />
        </mxCell>
        <mxCell id="qpJiPb5cpSYMiGC4lNPn-21" value="create buttons" style="rounded=1;whiteSpace=wrap;html=1;" parent="1" vertex="1">
          <mxGeometry x="660" y="215" width="50" height="30" as="geometry" />
        </mxCell>
        <mxCell id="qpJiPb5cpSYMiGC4lNPn-25" value="create" style="rounded=1;whiteSpace=wrap;html=1;" parent="1" vertex="1">
          <mxGeometry x="365" y="248.75" width="60" height="30" as="geometry" />
        </mxCell>
        <mxCell id="qpJiPb5cpSYMiGC4lNPn-29" value="scrollbar" style="shape=hexagon;perimeter=hexagonPerimeter2;whiteSpace=wrap;html=1;fixedSize=1;" parent="1" vertex="1">
          <mxGeometry x="150" y="200" width="80" height="60" as="geometry" />
        </mxCell>
        <mxCell id="qpJiPb5cpSYMiGC4lNPn-33" style="edgeStyle=orthogonalEdgeStyle;rounded=0;orthogonalLoop=1;jettySize=auto;html=1;exitX=0.75;exitY=1;exitDx=0;exitDy=0;" parent="1" edge="1">
          <mxGeometry relative="1" as="geometry">
            <mxPoint x="410" y="350" as="targetPoint" />
            <mxPoint x="427.5" y="350" as="sourcePoint" />
          </mxGeometry>
        </mxCell>
        <mxCell id="qpJiPb5cpSYMiGC4lNPn-38" value="" style="edgeStyle=orthogonalEdgeStyle;rounded=0;orthogonalLoop=1;jettySize=auto;html=1;" parent="1" source="qpJiPb5cpSYMiGC4lNPn-37" target="qpJiPb5cpSYMiGC4lNPn-15" edge="1">
          <mxGeometry relative="1" as="geometry" />
        </mxCell>
        <mxCell id="qpJiPb5cpSYMiGC4lNPn-45" value="" style="edgeStyle=orthogonalEdgeStyle;rounded=0;orthogonalLoop=1;jettySize=auto;html=1;exitX=1;exitY=0.5;exitDx=0;exitDy=0;" parent="1" source="qpJiPb5cpSYMiGC4lNPn-37" edge="1">
          <mxGeometry relative="1" as="geometry">
            <mxPoint x="600" y="150" as="sourcePoint" />
            <mxPoint x="675.0571428571427" y="215" as="targetPoint" />
          </mxGeometry>
        </mxCell>
        <mxCell id="qpJiPb5cpSYMiGC4lNPn-37" value="create GUI" style="rounded=0;whiteSpace=wrap;html=1;" parent="1" vertex="1">
          <mxGeometry x="488.75" y="130" width="75" height="40" as="geometry" />
        </mxCell>
      </root>
    </mxGraphModel>
  </diagram>
  <diagram id="KhJfoykV1e_Rc2uvPUPP" name="Page-2">
    <mxGraphModel dx="1042" dy="1643" grid="1" gridSize="10" guides="1" tooltips="1" connect="1" arrows="1" fold="1" page="1" pageScale="1" pageWidth="850" pageHeight="1100" math="0" shadow="0">
      <root>
        <mxCell id="0" />
        <mxCell id="1" parent="0" />
        <mxCell id="DbYfLBWdUJlYjgHPpYyd-8" value="" style="edgeStyle=orthogonalEdgeStyle;rounded=0;orthogonalLoop=1;jettySize=auto;html=1;" edge="1" parent="1" source="DbYfLBWdUJlYjgHPpYyd-1" target="DbYfLBWdUJlYjgHPpYyd-7">
          <mxGeometry relative="1" as="geometry" />
        </mxCell>
        <mxCell id="DbYfLBWdUJlYjgHPpYyd-1" value="START" style="ellipse;whiteSpace=wrap;html=1;" vertex="1" parent="1">
          <mxGeometry x="355" y="-90" width="100" height="60" as="geometry" />
        </mxCell>
        <mxCell id="DbYfLBWdUJlYjgHPpYyd-13" value="" style="edgeStyle=orthogonalEdgeStyle;rounded=0;orthogonalLoop=1;jettySize=auto;html=1;" edge="1" parent="1" source="DbYfLBWdUJlYjgHPpYyd-4" target="DbYfLBWdUJlYjgHPpYyd-9">
          <mxGeometry relative="1" as="geometry" />
        </mxCell>
        <mxCell id="DbYfLBWdUJlYjgHPpYyd-4" value="Places Buttons and Frame" style="whiteSpace=wrap;html=1;rounded=1;" vertex="1" parent="1">
          <mxGeometry x="560" y="70" width="120" height="60" as="geometry" />
        </mxCell>
        <mxCell id="DbYfLBWdUJlYjgHPpYyd-10" value="" style="edgeStyle=orthogonalEdgeStyle;rounded=0;orthogonalLoop=1;jettySize=auto;html=1;" edge="1" parent="1" source="DbYfLBWdUJlYjgHPpYyd-7" target="DbYfLBWdUJlYjgHPpYyd-4">
          <mxGeometry relative="1" as="geometry" />
        </mxCell>
        <mxCell id="DbYfLBWdUJlYjgHPpYyd-7" value="Install Window" style="rounded=1;whiteSpace=wrap;html=1;" vertex="1" parent="1">
          <mxGeometry x="360" y="70" width="90" height="60" as="geometry" />
        </mxCell>
        <mxCell id="DbYfLBWdUJlYjgHPpYyd-15" value="" style="edgeStyle=orthogonalEdgeStyle;rounded=0;orthogonalLoop=1;jettySize=auto;html=1;" edge="1" parent="1" source="DbYfLBWdUJlYjgHPpYyd-9" target="DbYfLBWdUJlYjgHPpYyd-14">
          <mxGeometry relative="1" as="geometry" />
        </mxCell>
        <mxCell id="DbYfLBWdUJlYjgHPpYyd-9" value="Placed Scrollbar Inside The Frame But Outside The Textbox" style="whiteSpace=wrap;html=1;aspect=fixed;" vertex="1" parent="1">
          <mxGeometry x="570" y="210" width="100" height="100" as="geometry" />
        </mxCell>
        <mxCell id="DbYfLBWdUJlYjgHPpYyd-17" value="" style="edgeStyle=orthogonalEdgeStyle;rounded=0;orthogonalLoop=1;jettySize=auto;html=1;" edge="1" parent="1" source="DbYfLBWdUJlYjgHPpYyd-14" target="DbYfLBWdUJlYjgHPpYyd-16">
          <mxGeometry relative="1" as="geometry" />
        </mxCell>
        <mxCell id="DbYfLBWdUJlYjgHPpYyd-23" value="" style="edgeStyle=orthogonalEdgeStyle;rounded=0;orthogonalLoop=1;jettySize=auto;html=1;" edge="1" parent="1" source="DbYfLBWdUJlYjgHPpYyd-14" target="DbYfLBWdUJlYjgHPpYyd-22">
          <mxGeometry relative="1" as="geometry" />
        </mxCell>
        <mxCell id="DbYfLBWdUJlYjgHPpYyd-14" value="Texts in&amp;nbsp; The Text box" style="rounded=1;whiteSpace=wrap;html=1;" vertex="1" parent="1">
          <mxGeometry x="380" y="230" width="120" height="60" as="geometry" />
        </mxCell>
        <mxCell id="DbYfLBWdUJlYjgHPpYyd-19" value="" style="edgeStyle=orthogonalEdgeStyle;rounded=0;orthogonalLoop=1;jettySize=auto;html=1;" edge="1" parent="1" source="DbYfLBWdUJlYjgHPpYyd-16" target="DbYfLBWdUJlYjgHPpYyd-18">
          <mxGeometry relative="1" as="geometry" />
        </mxCell>
        <mxCell id="DbYfLBWdUJlYjgHPpYyd-21" value="" style="edgeStyle=orthogonalEdgeStyle;rounded=0;orthogonalLoop=1;jettySize=auto;html=1;" edge="1" parent="1" source="DbYfLBWdUJlYjgHPpYyd-16" target="DbYfLBWdUJlYjgHPpYyd-20">
          <mxGeometry relative="1" as="geometry" />
        </mxCell>
        <mxCell id="DbYfLBWdUJlYjgHPpYyd-16" value="Yes" style="rhombus;whiteSpace=wrap;html=1;rounded=1;" vertex="1" parent="1">
          <mxGeometry x="400" y="370" width="80" height="60" as="geometry" />
        </mxCell>
        <mxCell id="DbYfLBWdUJlYjgHPpYyd-46" value="" style="edgeStyle=orthogonalEdgeStyle;rounded=0;orthogonalLoop=1;jettySize=auto;html=1;" edge="1" parent="1" source="DbYfLBWdUJlYjgHPpYyd-18" target="DbYfLBWdUJlYjgHPpYyd-45">
          <mxGeometry relative="1" as="geometry" />
        </mxCell>
        <mxCell id="DbYfLBWdUJlYjgHPpYyd-18" value="Clicked&lt;div&gt;&amp;nbsp;&quot;Save&quot;&lt;div&gt;Button&lt;/div&gt;&lt;/div&gt;" style="ellipse;whiteSpace=wrap;html=1;rounded=1;" vertex="1" parent="1">
          <mxGeometry x="625" y="360" width="80" height="80" as="geometry" />
        </mxCell>
        <mxCell id="DbYfLBWdUJlYjgHPpYyd-29" value="" style="edgeStyle=orthogonalEdgeStyle;rounded=0;orthogonalLoop=1;jettySize=auto;html=1;" edge="1" parent="1" source="DbYfLBWdUJlYjgHPpYyd-20" target="DbYfLBWdUJlYjgHPpYyd-28">
          <mxGeometry relative="1" as="geometry" />
        </mxCell>
        <mxCell id="DbYfLBWdUJlYjgHPpYyd-20" value="Clicked&lt;div&gt;&quot;Open&quot;&lt;/div&gt;&lt;div&gt;Button&lt;/div&gt;" style="ellipse;whiteSpace=wrap;html=1;rounded=1;" vertex="1" parent="1">
          <mxGeometry x="212.5" y="360" width="80" height="80" as="geometry" />
        </mxCell>
        <mxCell id="DbYfLBWdUJlYjgHPpYyd-25" value="" style="edgeStyle=orthogonalEdgeStyle;rounded=0;orthogonalLoop=1;jettySize=auto;html=1;" edge="1" parent="1" source="DbYfLBWdUJlYjgHPpYyd-22" target="DbYfLBWdUJlYjgHPpYyd-24">
          <mxGeometry relative="1" as="geometry" />
        </mxCell>
        <mxCell id="DbYfLBWdUJlYjgHPpYyd-22" value="No" style="rhombus;whiteSpace=wrap;html=1;rounded=1;" vertex="1" parent="1">
          <mxGeometry x="190" y="225" width="70" height="70" as="geometry" />
        </mxCell>
        <mxCell id="DbYfLBWdUJlYjgHPpYyd-27" value="" style="edgeStyle=orthogonalEdgeStyle;rounded=0;orthogonalLoop=1;jettySize=auto;html=1;" edge="1" parent="1" source="DbYfLBWdUJlYjgHPpYyd-24" target="DbYfLBWdUJlYjgHPpYyd-26">
          <mxGeometry relative="1" as="geometry" />
        </mxCell>
        <mxCell id="DbYfLBWdUJlYjgHPpYyd-24" value="Clicked&lt;div&gt;&quot;Save&quot;&lt;/div&gt;&lt;div&gt;Button&lt;/div&gt;" style="ellipse;whiteSpace=wrap;html=1;rounded=1;" vertex="1" parent="1">
          <mxGeometry x="35" y="220" width="80" height="80" as="geometry" />
        </mxCell>
        <mxCell id="DbYfLBWdUJlYjgHPpYyd-26" value="Appear a Messagebox&lt;div&gt;&quot;Textbox is empty&quot;&lt;/div&gt;" style="whiteSpace=wrap;html=1;rounded=1;" vertex="1" parent="1">
          <mxGeometry x="15" y="390" width="120" height="60" as="geometry" />
        </mxCell>
        <mxCell id="DbYfLBWdUJlYjgHPpYyd-32" value="" style="edgeStyle=orthogonalEdgeStyle;rounded=0;orthogonalLoop=1;jettySize=auto;html=1;" edge="1" parent="1" source="DbYfLBWdUJlYjgHPpYyd-28" target="DbYfLBWdUJlYjgHPpYyd-30">
          <mxGeometry relative="1" as="geometry" />
        </mxCell>
        <mxCell id="DbYfLBWdUJlYjgHPpYyd-28" value="Open A File Dialogbox As&lt;div&gt;&quot;Open&quot;&lt;/div&gt;" style="whiteSpace=wrap;html=1;rounded=1;" vertex="1" parent="1">
          <mxGeometry x="192.5" y="490" width="120" height="60" as="geometry" />
        </mxCell>
        <mxCell id="DbYfLBWdUJlYjgHPpYyd-34" value="" style="edgeStyle=orthogonalEdgeStyle;rounded=0;orthogonalLoop=1;jettySize=auto;html=1;" edge="1" parent="1" source="DbYfLBWdUJlYjgHPpYyd-30" target="DbYfLBWdUJlYjgHPpYyd-33">
          <mxGeometry relative="1" as="geometry" />
        </mxCell>
        <mxCell id="DbYfLBWdUJlYjgHPpYyd-30" value="By Default &quot;.txt&quot; File Display In The File Dialogbox" style="whiteSpace=wrap;html=1;rounded=1;" vertex="1" parent="1">
          <mxGeometry x="192.5" y="630" width="120" height="60" as="geometry" />
        </mxCell>
        <mxCell id="DbYfLBWdUJlYjgHPpYyd-74" value="" style="edgeStyle=orthogonalEdgeStyle;rounded=0;orthogonalLoop=1;jettySize=auto;html=1;" edge="1" parent="1" source="DbYfLBWdUJlYjgHPpYyd-33" target="DbYfLBWdUJlYjgHPpYyd-37">
          <mxGeometry relative="1" as="geometry" />
        </mxCell>
        <mxCell id="DbYfLBWdUJlYjgHPpYyd-33" value="Select Or Write The Existing File Name And It&#39;s Type" style="whiteSpace=wrap;html=1;rounded=1;" vertex="1" parent="1">
          <mxGeometry x="192.5" y="770" width="120" height="60" as="geometry" />
        </mxCell>
        <mxCell id="DbYfLBWdUJlYjgHPpYyd-42" value="" style="edgeStyle=orthogonalEdgeStyle;rounded=0;orthogonalLoop=1;jettySize=auto;html=1;" edge="1" parent="1" source="DbYfLBWdUJlYjgHPpYyd-37" target="DbYfLBWdUJlYjgHPpYyd-41">
          <mxGeometry relative="1" as="geometry" />
        </mxCell>
        <mxCell id="DbYfLBWdUJlYjgHPpYyd-37" value="Clicked&lt;div&gt;&quot;Open&quot;&lt;/div&gt;" style="ellipse;whiteSpace=wrap;html=1;rounded=1;" vertex="1" parent="1">
          <mxGeometry x="212.5" y="890" width="80" height="80" as="geometry" />
        </mxCell>
        <mxCell id="DbYfLBWdUJlYjgHPpYyd-48" value="" style="edgeStyle=orthogonalEdgeStyle;rounded=0;orthogonalLoop=1;jettySize=auto;html=1;" edge="1" parent="1" source="DbYfLBWdUJlYjgHPpYyd-45" target="DbYfLBWdUJlYjgHPpYyd-47">
          <mxGeometry relative="1" as="geometry" />
        </mxCell>
        <mxCell id="DbYfLBWdUJlYjgHPpYyd-45" value="Open A File Dialogbox As&lt;div&gt;&quot;Save As&quot;&lt;/div&gt;" style="whiteSpace=wrap;html=1;rounded=1;" vertex="1" parent="1">
          <mxGeometry x="605" y="490" width="120" height="60" as="geometry" />
        </mxCell>
        <mxCell id="DbYfLBWdUJlYjgHPpYyd-50" value="" style="edgeStyle=orthogonalEdgeStyle;rounded=0;orthogonalLoop=1;jettySize=auto;html=1;" edge="1" parent="1" source="DbYfLBWdUJlYjgHPpYyd-47">
          <mxGeometry relative="1" as="geometry">
            <mxPoint x="665" y="720" as="targetPoint" />
          </mxGeometry>
        </mxCell>
        <mxCell id="DbYfLBWdUJlYjgHPpYyd-47" value="Write File Name And It&#39;s Type" style="whiteSpace=wrap;html=1;rounded=1;" vertex="1" parent="1">
          <mxGeometry x="605" y="600" width="120" height="60" as="geometry" />
        </mxCell>
        <mxCell id="DbYfLBWdUJlYjgHPpYyd-56" value="" style="edgeStyle=orthogonalEdgeStyle;rounded=0;orthogonalLoop=1;jettySize=auto;html=1;" edge="1" parent="1" target="DbYfLBWdUJlYjgHPpYyd-55">
          <mxGeometry relative="1" as="geometry">
            <mxPoint x="625" y="750" as="sourcePoint" />
          </mxGeometry>
        </mxCell>
        <mxCell id="DbYfLBWdUJlYjgHPpYyd-60" value="" style="edgeStyle=orthogonalEdgeStyle;rounded=0;orthogonalLoop=1;jettySize=auto;html=1;" edge="1" parent="1" source="DbYfLBWdUJlYjgHPpYyd-55" target="DbYfLBWdUJlYjgHPpYyd-59">
          <mxGeometry relative="1" as="geometry" />
        </mxCell>
        <mxCell id="DbYfLBWdUJlYjgHPpYyd-55" value="Clicked&lt;div&gt;&quot;Save&quot;&lt;/div&gt;" style="ellipse;whiteSpace=wrap;html=1;rounded=1;" vertex="1" parent="1">
          <mxGeometry x="627.5" y="720" width="75" height="70" as="geometry" />
        </mxCell>
        <mxCell id="DbYfLBWdUJlYjgHPpYyd-64" value="" style="edgeStyle=orthogonalEdgeStyle;rounded=0;orthogonalLoop=1;jettySize=auto;html=1;" edge="1" parent="1" source="DbYfLBWdUJlYjgHPpYyd-59" target="DbYfLBWdUJlYjgHPpYyd-63">
          <mxGeometry relative="1" as="geometry" />
        </mxCell>
        <mxCell id="DbYfLBWdUJlYjgHPpYyd-59" value="A Messagebox Appear As &quot;File Saved&quot;" style="whiteSpace=wrap;html=1;rounded=1;" vertex="1" parent="1">
          <mxGeometry x="437.5" y="860" width="120" height="60" as="geometry" />
        </mxCell>
        <mxCell id="DbYfLBWdUJlYjgHPpYyd-63" value="Exit" style="ellipse;whiteSpace=wrap;html=1;" vertex="1" parent="1">
          <mxGeometry x="452.5" y="1025" width="90" height="70" as="geometry" />
        </mxCell>
        <mxCell id="DbYfLBWdUJlYjgHPpYyd-71" value="" style="edgeStyle=orthogonalEdgeStyle;rounded=0;orthogonalLoop=1;jettySize=auto;html=1;" edge="1" parent="1" source="DbYfLBWdUJlYjgHPpYyd-41">
          <mxGeometry relative="1" as="geometry">
            <mxPoint x="440" y="1060" as="targetPoint" />
          </mxGeometry>
        </mxCell>
        <mxCell id="DbYfLBWdUJlYjgHPpYyd-41" value="Display The Texts of The Selected File In The Textbox" style="whiteSpace=wrap;html=1;rounded=1;" vertex="1" parent="1">
          <mxGeometry x="192.5" y="1030" width="120" height="60" as="geometry" />
        </mxCell>
      </root>
    </mxGraphModel>
  </diagram>
</mxfile>
